<svg version="1.0" xmlns="http://www.w3.org/2000/svg" width="341.333" height="341.333" viewBox="0 0 256 256"><path d="M64.5 78.2c1.8 5.7 8.8 27.3 15.6 48l12.4 37.7 12.2.1h12.1l7.1-21.3c12.4-37 13.7-40.6 14.3-41.3.4-.3 5.3 13.6 11 31l10.3 31.6h24.3l4-12.3c6.3-19 25.8-78.9 26.6-81.5.7-2.2.7-2.2-10.1-2.2h-10.8l-11 33.5c-6 18.5-11.2 33-11.6 32.3-.4-.7-5.3-15.8-11-33.6L149.6 68h-21.1l-11 33c-6 18.1-11.2 33-11.5 33-.3 0-5.2-14.9-11-33L84.5 68H61.2l3.3 10.2zm-15.7 23.4c-3.6 1.9-4.8 4.3-4.8 9.4 0 3.3.6 4.8 2.9 7.1 2.5 2.5 3.7 2.9 8.4 2.9 4 0 6.1-.6 8-2.1 3.4-2.6 5.2-8.4 3.8-12.1-2.2-5.9-12.1-8.6-18.3-5.2zM46 165.5V199h19v-67H46v33.5z"/></svg>