<svg width="31.555" height="31.555" viewBox="0 -0.5 31.555 31.555" xmlns="http://www.w3.org/2000/svg"><path d="M28.613 2a.944.944 0 0 1 .942.942v18.357a.943.943 0 0 1-.942.942H2.941A.942.942 0 0 1 2 21.299V2.942A.943.943 0 0 1 2.941 2h25.672m0-2H2.941A2.942 2.942 0 0 0 0 2.942v18.357a2.942 2.942 0 0 0 2.941 2.942h25.672a2.942 2.942 0 0 0 2.942-2.942V2.942A2.942 2.942 0 0 0 28.613 0Z"/><path d="M14.777 23.046h2v6.5h-2z"/><path d="M23.201 30.546H9.618a1 1 0 0 1 0-2h13.583a1 1 0 0 1 0 2Zm7-10.725H1.618a1 1 0 0 1 0-2h28.583a1 1 0 0 1 0 2Z"/></svg>